<mxfile host="Electron" modified="2024-02-11T14:47:57.453Z" agent="Mozilla/5.0 (Macintosh; Intel Mac OS X 10_15_7) AppleWebKit/537.36 (KHTML, like Gecko) draw.io/23.0.2 Chrome/120.0.6099.109 Electron/28.1.0 Safari/537.36" etag="q7PjycMmtnMWjwW0JqSj" version="23.0.2" type="device">
  <diagram id="XQScs_168ydfFgeRW8u4" name="Page-1">
    <mxGraphModel dx="981" dy="696" grid="1" gridSize="10" guides="1" tooltips="1" connect="1" arrows="1" fold="1" page="1" pageScale="1" pageWidth="827" pageHeight="1169" math="0" shadow="0">
      <root>
        <mxCell id="0" />
        <mxCell id="1" parent="0" />
        <mxCell id="n6hJVPZYRjIwsxcu-Pxa-13" value="VPC" style="points=[[0,0],[0.25,0],[0.5,0],[0.75,0],[1,0],[1,0.25],[1,0.5],[1,0.75],[1,1],[0.75,1],[0.5,1],[0.25,1],[0,1],[0,0.75],[0,0.5],[0,0.25]];outlineConnect=0;gradientColor=none;html=1;whiteSpace=wrap;fontSize=12;fontStyle=0;shape=mxgraph.aws4.group;grIcon=mxgraph.aws4.group_vpc;strokeColor=#248814;fillColor=none;verticalAlign=top;align=left;spacingLeft=30;fontColor=#AAB7B8;dashed=0;" parent="1" vertex="1">
          <mxGeometry x="80" y="10" width="670" height="420" as="geometry" />
        </mxCell>
        <mxCell id="n6hJVPZYRjIwsxcu-Pxa-1" value="Public subnet" style="points=[[0,0],[0.25,0],[0.5,0],[0.75,0],[1,0],[1,0.25],[1,0.5],[1,0.75],[1,1],[0.75,1],[0.5,1],[0.25,1],[0,1],[0,0.75],[0,0.5],[0,0.25]];outlineConnect=0;gradientColor=none;html=1;whiteSpace=wrap;fontSize=12;fontStyle=0;shape=mxgraph.aws4.group;grIcon=mxgraph.aws4.group_security_group;grStroke=0;strokeColor=#248814;fillColor=#E9F3E6;verticalAlign=top;align=left;spacingLeft=30;fontColor=#248814;dashed=0;" parent="1" vertex="1">
          <mxGeometry x="100" y="40" width="340" height="80" as="geometry" />
        </mxCell>
        <mxCell id="n6hJVPZYRjIwsxcu-Pxa-2" value="Private subnet" style="points=[[0,0],[0.25,0],[0.5,0],[0.75,0],[1,0],[1,0.25],[1,0.5],[1,0.75],[1,1],[0.75,1],[0.5,1],[0.25,1],[0,1],[0,0.75],[0,0.5],[0,0.25]];outlineConnect=0;gradientColor=none;html=1;whiteSpace=wrap;fontSize=12;fontStyle=0;shape=mxgraph.aws4.group;grIcon=mxgraph.aws4.group_security_group;grStroke=0;strokeColor=#147EBA;fillColor=#E6F2F8;verticalAlign=top;align=left;spacingLeft=30;fontColor=#147EBA;dashed=0;" parent="1" vertex="1">
          <mxGeometry x="100" y="130" width="480" height="280" as="geometry" />
        </mxCell>
        <mxCell id="n6hJVPZYRjIwsxcu-Pxa-3" value="api.deepscan.&amp;nbsp; &amp;nbsp;&lt;br&gt;trustsource.io&amp;nbsp; &amp;nbsp;" style="outlineConnect=0;fontColor=#232F3E;gradientColor=#F54749;gradientDirection=north;fillColor=#C7131F;strokeColor=#ffffff;dashed=0;verticalLabelPosition=middle;verticalAlign=middle;align=right;html=1;fontSize=12;fontStyle=0;aspect=fixed;shape=mxgraph.aws4.resourceIcon;resIcon=mxgraph.aws4.api_gateway;labelPosition=left;" parent="1" vertex="1">
          <mxGeometry x="281" y="150" width="36" height="36" as="geometry" />
        </mxCell>
        <mxCell id="n6hJVPZYRjIwsxcu-Pxa-4" value="https://api.trustsource.io/deepscan" style="outlineConnect=0;dashed=0;verticalLabelPosition=top;verticalAlign=bottom;align=center;html=1;shape=mxgraph.aws3.classic_load_balancer;fillColor=#F58534;gradientColor=none;aspect=fixed;labelPosition=center;" parent="1" vertex="1">
          <mxGeometry x="310" y="61.740000000000016" width="35" height="36.52" as="geometry" />
        </mxCell>
        <mxCell id="n6hJVPZYRjIwsxcu-Pxa-5" value="POST&lt;br&gt;/request" style="outlineConnect=0;fontColor=#232F3E;gradientColor=#F78E04;gradientDirection=north;fillColor=#D05C17;strokeColor=#ffffff;dashed=0;verticalLabelPosition=bottom;verticalAlign=top;align=center;html=1;fontSize=12;fontStyle=0;aspect=fixed;shape=mxgraph.aws4.resourceIcon;resIcon=mxgraph.aws4.lambda;labelPosition=center;" parent="1" vertex="1">
          <mxGeometry x="220" y="217" width="36" height="36" as="geometry" />
        </mxCell>
        <mxCell id="n6hJVPZYRjIwsxcu-Pxa-6" value="scanrequest.&lt;br&gt;deepscan.&lt;br&gt;trustsource" style="outlineConnect=0;fontColor=#232F3E;gradientColor=#F34482;gradientDirection=north;fillColor=#BC1356;strokeColor=#ffffff;dashed=0;verticalLabelPosition=middle;verticalAlign=middle;align=right;html=1;fontSize=12;fontStyle=0;aspect=fixed;shape=mxgraph.aws4.resourceIcon;resIcon=mxgraph.aws4.sqs;labelPosition=left;" parent="1" vertex="1">
          <mxGeometry x="160" y="258" width="36" height="36" as="geometry" />
        </mxCell>
        <mxCell id="n6hJVPZYRjIwsxcu-Pxa-7" value="Trigger&lt;br&gt;DeepScan" style="outlineConnect=0;fontColor=#232F3E;gradientColor=#F78E04;gradientDirection=north;fillColor=#D05C17;strokeColor=#ffffff;dashed=0;verticalLabelPosition=middle;verticalAlign=middle;align=left;html=1;fontSize=12;fontStyle=0;aspect=fixed;shape=mxgraph.aws4.resourceIcon;resIcon=mxgraph.aws4.lambda;labelPosition=right;" parent="1" vertex="1">
          <mxGeometry x="220" y="302" width="36" height="36" as="geometry" />
        </mxCell>
        <mxCell id="n6hJVPZYRjIwsxcu-Pxa-10" value="Private subnet" style="points=[[0,0],[0.25,0],[0.5,0],[0.75,0],[1,0],[1,0.25],[1,0.5],[1,0.75],[1,1],[0.75,1],[0.5,1],[0.25,1],[0,1],[0,0.75],[0,0.5],[0,0.25]];outlineConnect=0;gradientColor=none;html=1;whiteSpace=wrap;fontSize=12;fontStyle=0;shape=mxgraph.aws4.group;grIcon=mxgraph.aws4.group_security_group;grStroke=0;strokeColor=#147EBA;fillColor=#E6F2F8;verticalAlign=top;align=left;spacingLeft=30;fontColor=#147EBA;dashed=0;" parent="1" vertex="1">
          <mxGeometry x="590" y="130" width="150" height="280" as="geometry" />
        </mxCell>
        <mxCell id="n6hJVPZYRjIwsxcu-Pxa-11" value="" style="outlineConnect=0;dashed=0;verticalLabelPosition=bottom;verticalAlign=top;align=center;html=1;shape=mxgraph.aws3.dynamo_db;fillColor=#2E73B8;gradientColor=none;aspect=fixed;" parent="1" vertex="1">
          <mxGeometry x="620" y="249.75" width="36" height="40.5" as="geometry" />
        </mxCell>
        <mxCell id="n6hJVPZYRjIwsxcu-Pxa-14" value="" style="edgeStyle=orthogonalEdgeStyle;html=1;endArrow=none;elbow=vertical;startArrow=block;startFill=1;strokeColor=#545B64;rounded=0;entryX=0.5;entryY=1;entryDx=0;entryDy=0;entryPerimeter=0;" parent="1" source="n6hJVPZYRjIwsxcu-Pxa-3" target="n6hJVPZYRjIwsxcu-Pxa-4" edge="1">
          <mxGeometry width="100" relative="1" as="geometry">
            <mxPoint x="360" y="420" as="sourcePoint" />
            <mxPoint x="460" y="420" as="targetPoint" />
          </mxGeometry>
        </mxCell>
        <mxCell id="n6hJVPZYRjIwsxcu-Pxa-15" value="" style="edgeStyle=orthogonalEdgeStyle;html=1;endArrow=none;elbow=vertical;startArrow=block;startFill=1;strokeColor=#545B64;rounded=0;exitX=0.417;exitY=-0.028;exitDx=0;exitDy=0;exitPerimeter=0;" parent="1" source="n6hJVPZYRjIwsxcu-Pxa-5" target="n6hJVPZYRjIwsxcu-Pxa-3" edge="1">
          <mxGeometry width="100" relative="1" as="geometry">
            <mxPoint x="360" y="420" as="sourcePoint" />
            <mxPoint x="460" y="420" as="targetPoint" />
            <Array as="points">
              <mxPoint x="235" y="196" />
              <mxPoint x="299" y="196" />
            </Array>
          </mxGeometry>
        </mxCell>
        <mxCell id="n6hJVPZYRjIwsxcu-Pxa-22" value="" style="edgeStyle=orthogonalEdgeStyle;html=1;endArrow=none;elbow=vertical;startArrow=block;startFill=1;strokeColor=#545B64;rounded=0;exitX=0.5;exitY=0;exitDx=0;exitDy=0;exitPerimeter=0;" parent="1" source="n6hJVPZYRjIwsxcu-Pxa-11" target="QBYHGXPFq6S5iVyyYOcL-2" edge="1">
          <mxGeometry width="100" relative="1" as="geometry">
            <mxPoint x="360" y="420" as="sourcePoint" />
            <mxPoint x="416" y="228" as="targetPoint" />
            <Array as="points">
              <mxPoint x="640" y="250" />
              <mxPoint x="640" y="194" />
            </Array>
          </mxGeometry>
        </mxCell>
        <mxCell id="n6hJVPZYRjIwsxcu-Pxa-35" value="Update&lt;br&gt;ComponenDB" style="edgeLabel;html=1;align=center;verticalAlign=middle;resizable=0;points=[];labelBackgroundColor=#ffffff;" parent="n6hJVPZYRjIwsxcu-Pxa-22" vertex="1" connectable="0">
          <mxGeometry x="-0.3494" y="21" relative="1" as="geometry">
            <mxPoint x="-1.7499999999999991" y="-22.75" as="offset" />
          </mxGeometry>
        </mxCell>
        <mxCell id="n6hJVPZYRjIwsxcu-Pxa-23" value="" style="edgeStyle=orthogonalEdgeStyle;html=1;endArrow=none;elbow=vertical;startArrow=block;startFill=1;strokeColor=#545B64;rounded=0;" parent="1" source="n6hJVPZYRjIwsxcu-Pxa-9" target="n6hJVPZYRjIwsxcu-Pxa-7" edge="1">
          <mxGeometry width="100" relative="1" as="geometry">
            <mxPoint x="360" y="420" as="sourcePoint" />
            <mxPoint x="460" y="420" as="targetPoint" />
            <Array as="points">
              <mxPoint x="238" y="358" />
            </Array>
          </mxGeometry>
        </mxCell>
        <mxCell id="n6hJVPZYRjIwsxcu-Pxa-24" value="" style="edgeStyle=orthogonalEdgeStyle;html=1;endArrow=none;elbow=vertical;startArrow=block;startFill=1;strokeColor=#545B64;rounded=0;" parent="1" source="n6hJVPZYRjIwsxcu-Pxa-7" target="n6hJVPZYRjIwsxcu-Pxa-6" edge="1">
          <mxGeometry width="100" relative="1" as="geometry">
            <mxPoint x="200" y="460" as="sourcePoint" />
            <mxPoint x="300" y="460" as="targetPoint" />
          </mxGeometry>
        </mxCell>
        <mxCell id="n6hJVPZYRjIwsxcu-Pxa-25" value="" style="edgeStyle=orthogonalEdgeStyle;html=1;endArrow=none;elbow=vertical;startArrow=block;startFill=1;strokeColor=#545B64;rounded=0;exitX=0.639;exitY=-0.028;exitDx=0;exitDy=0;exitPerimeter=0;entryX=-0.028;entryY=0.5;entryDx=0;entryDy=0;entryPerimeter=0;" parent="1" source="n6hJVPZYRjIwsxcu-Pxa-6" target="n6hJVPZYRjIwsxcu-Pxa-5" edge="1">
          <mxGeometry width="100" relative="1" as="geometry">
            <mxPoint x="360" y="420" as="sourcePoint" />
            <mxPoint x="460" y="420" as="targetPoint" />
            <Array as="points" />
          </mxGeometry>
        </mxCell>
        <mxCell id="n6hJVPZYRjIwsxcu-Pxa-26" value="" style="edgeStyle=orthogonalEdgeStyle;html=1;endArrow=none;elbow=vertical;startArrow=block;startFill=1;strokeColor=#545B64;rounded=0;" parent="1" source="QBYHGXPFq6S5iVyyYOcL-8" target="n6hJVPZYRjIwsxcu-Pxa-3" edge="1">
          <mxGeometry width="100" relative="1" as="geometry">
            <mxPoint x="388" y="210" as="sourcePoint" />
            <mxPoint x="460" y="420" as="targetPoint" />
            <Array as="points">
              <mxPoint x="128" y="168" />
            </Array>
          </mxGeometry>
        </mxCell>
        <mxCell id="n6hJVPZYRjIwsxcu-Pxa-9" value="fargate/&lt;br&gt;ts-deepscan/&lt;br&gt;ts-deepscan" style="outlineConnect=0;fontColor=#232F3E;gradientColor=#F78E04;gradientDirection=north;fillColor=#D05C17;strokeColor=#ffffff;dashed=0;verticalLabelPosition=middle;verticalAlign=middle;align=left;html=1;fontSize=12;fontStyle=0;aspect=fixed;shape=mxgraph.aws4.resourceIcon;resIcon=mxgraph.aws4.ecs;labelPosition=right;" parent="1" vertex="1">
          <mxGeometry x="397" y="350" width="36" height="36" as="geometry" />
        </mxCell>
        <mxCell id="mx4EbaQb1tpNw13JY9W0-1" value="notification.&lt;br&gt;deepscan.&lt;br&gt;trustsource" style="outlineConnect=0;fontColor=#232F3E;gradientColor=#F34482;gradientDirection=north;fillColor=#BC1356;strokeColor=#ffffff;dashed=0;verticalLabelPosition=middle;verticalAlign=middle;align=right;html=1;fontSize=12;fontStyle=0;aspect=fixed;shape=mxgraph.aws4.resourceIcon;resIcon=mxgraph.aws4.sqs;labelPosition=left;" parent="1" vertex="1">
          <mxGeometry x="345" y="217" width="36" height="36" as="geometry" />
        </mxCell>
        <mxCell id="mx4EbaQb1tpNw13JY9W0-2" value="Notify&lt;br&gt;requestor" style="outlineConnect=0;fontColor=#232F3E;gradientColor=#F78E04;gradientDirection=north;fillColor=#D05C17;strokeColor=#ffffff;dashed=0;verticalLabelPosition=middle;verticalAlign=middle;align=right;html=1;fontSize=12;fontStyle=0;aspect=fixed;shape=mxgraph.aws4.resourceIcon;resIcon=mxgraph.aws4.lambda;labelPosition=left;" parent="1" vertex="1">
          <mxGeometry x="390" y="150" width="36" height="36" as="geometry" />
        </mxCell>
        <mxCell id="mx4EbaQb1tpNw13JY9W0-3" value="Publish&lt;br&gt;Results" style="endArrow=classic;html=1;" parent="1" source="n6hJVPZYRjIwsxcu-Pxa-9" target="QBYHGXPFq6S5iVyyYOcL-7" edge="1">
          <mxGeometry width="50" height="50" relative="1" as="geometry">
            <mxPoint x="390" y="450" as="sourcePoint" />
            <mxPoint x="440" y="400" as="targetPoint" />
          </mxGeometry>
        </mxCell>
        <mxCell id="mx4EbaQb1tpNw13JY9W0-4" value="" style="outlineConnect=0;fontColor=#232F3E;gradientColor=none;fillColor=#3334B9;strokeColor=none;dashed=0;verticalLabelPosition=bottom;verticalAlign=top;align=center;html=1;fontSize=12;fontStyle=0;aspect=fixed;pointerEvents=1;shape=mxgraph.aws4.email;" parent="1" vertex="1">
          <mxGeometry x="470" y="61.739999999999995" width="36" height="31.85" as="geometry" />
        </mxCell>
        <mxCell id="mx4EbaQb1tpNw13JY9W0-5" value="" style="endArrow=classic;html=1;" parent="1" source="mx4EbaQb1tpNw13JY9W0-1" target="mx4EbaQb1tpNw13JY9W0-2" edge="1">
          <mxGeometry width="50" height="50" relative="1" as="geometry">
            <mxPoint x="390" y="450" as="sourcePoint" />
            <mxPoint x="440" y="400" as="targetPoint" />
          </mxGeometry>
        </mxCell>
        <mxCell id="mx4EbaQb1tpNw13JY9W0-7" value="" style="endArrow=classic;html=1;" parent="1" source="mx4EbaQb1tpNw13JY9W0-2" target="mx4EbaQb1tpNw13JY9W0-4" edge="1">
          <mxGeometry width="50" height="50" relative="1" as="geometry">
            <mxPoint x="390" y="450" as="sourcePoint" />
            <mxPoint x="440" y="400" as="targetPoint" />
          </mxGeometry>
        </mxCell>
        <mxCell id="QBYHGXPFq6S5iVyyYOcL-11" style="edgeStyle=orthogonalEdgeStyle;rounded=0;orthogonalLoop=1;jettySize=auto;html=1;" parent="1" source="QBYHGXPFq6S5iVyyYOcL-8" target="QBYHGXPFq6S5iVyyYOcL-7" edge="1">
          <mxGeometry relative="1" as="geometry">
            <mxPoint x="430" y="560" as="targetPoint" />
            <Array as="points">
              <mxPoint x="128" y="370" />
              <mxPoint x="352" y="370" />
            </Array>
          </mxGeometry>
        </mxCell>
        <mxCell id="QBYHGXPFq6S5iVyyYOcL-2" value="" style="outlineConnect=0;fontColor=#232F3E;gradientColor=#F78E04;gradientDirection=north;fillColor=#D05C17;strokeColor=#ffffff;dashed=0;verticalLabelPosition=middle;verticalAlign=middle;align=right;html=1;fontSize=12;fontStyle=0;aspect=fixed;shape=mxgraph.aws4.resourceIcon;resIcon=mxgraph.aws4.lambda;labelPosition=left;" parent="1" vertex="1">
          <mxGeometry x="470" y="181" width="36" height="36" as="geometry" />
        </mxCell>
        <mxCell id="QBYHGXPFq6S5iVyyYOcL-5" value="updateCompDB.&lt;br&gt;deepscan.&lt;br&gt;trustsource" style="outlineConnect=0;fontColor=#232F3E;gradientColor=#F34482;gradientDirection=north;fillColor=#BC1356;strokeColor=#ffffff;dashed=0;verticalLabelPosition=middle;verticalAlign=middle;align=left;html=1;fontSize=12;fontStyle=0;aspect=fixed;shape=mxgraph.aws4.resourceIcon;resIcon=mxgraph.aws4.sqs;labelPosition=right;direction=south;" parent="1" vertex="1">
          <mxGeometry x="420" y="230" width="36" height="36" as="geometry" />
        </mxCell>
        <mxCell id="QBYHGXPFq6S5iVyyYOcL-6" value="notification-&lt;br&gt;deepscan" style="outlineConnect=0;fontColor=#232F3E;gradientColor=#F34482;gradientDirection=north;fillColor=#BC1356;strokeColor=#ffffff;dashed=0;verticalLabelPosition=middle;verticalAlign=middle;align=right;html=1;fontSize=12;fontStyle=0;aspect=fixed;shape=mxgraph.aws4.resourceIcon;resIcon=mxgraph.aws4.sns;labelPosition=left;" parent="1" vertex="1">
          <mxGeometry x="360" y="280" width="36" height="36" as="geometry" />
        </mxCell>
        <mxCell id="QBYHGXPFq6S5iVyyYOcL-7" value="" style="outlineConnect=0;fontColor=#232F3E;gradientColor=#60A337;gradientDirection=north;fillColor=#277116;strokeColor=#ffffff;dashed=0;verticalLabelPosition=bottom;verticalAlign=top;align=center;html=1;fontSize=12;fontStyle=0;aspect=fixed;shape=mxgraph.aws4.resourceIcon;resIcon=mxgraph.aws4.s3;" parent="1" vertex="1">
          <mxGeometry x="334" y="420" width="36" height="36" as="geometry" />
        </mxCell>
        <mxCell id="QBYHGXPFq6S5iVyyYOcL-8" value="GET&lt;br&gt;scanresult" style="outlineConnect=0;fontColor=#232F3E;gradientColor=#F78E04;gradientDirection=north;fillColor=#D05C17;strokeColor=#ffffff;dashed=0;verticalLabelPosition=middle;verticalAlign=middle;align=left;html=1;fontSize=12;fontStyle=0;aspect=fixed;shape=mxgraph.aws4.resourceIcon;resIcon=mxgraph.aws4.lambda;labelPosition=right;" parent="1" vertex="1">
          <mxGeometry x="110" y="186" width="36" height="36" as="geometry" />
        </mxCell>
        <mxCell id="QBYHGXPFq6S5iVyyYOcL-12" value="" style="endArrow=classic;html=1;rounded=0;" parent="1" source="n6hJVPZYRjIwsxcu-Pxa-9" target="QBYHGXPFq6S5iVyyYOcL-6" edge="1">
          <mxGeometry width="50" height="50" relative="1" as="geometry">
            <mxPoint x="390" y="450" as="sourcePoint" />
            <mxPoint x="440" y="400" as="targetPoint" />
            <Array as="points">
              <mxPoint x="422" y="340" />
              <mxPoint x="378" y="340" />
            </Array>
          </mxGeometry>
        </mxCell>
        <mxCell id="QBYHGXPFq6S5iVyyYOcL-13" value="" style="endArrow=classic;html=1;edgeStyle=orthogonalEdgeStyle;rounded=0;" parent="1" source="QBYHGXPFq6S5iVyyYOcL-6" target="mx4EbaQb1tpNw13JY9W0-1" edge="1">
          <mxGeometry width="50" height="50" relative="1" as="geometry">
            <mxPoint x="390" y="450" as="sourcePoint" />
            <mxPoint x="440" y="400" as="targetPoint" />
          </mxGeometry>
        </mxCell>
        <mxCell id="QBYHGXPFq6S5iVyyYOcL-14" value="" style="endArrow=classic;html=1;rounded=0;" parent="1" source="QBYHGXPFq6S5iVyyYOcL-6" target="QBYHGXPFq6S5iVyyYOcL-5" edge="1">
          <mxGeometry width="50" height="50" relative="1" as="geometry">
            <mxPoint x="390" y="450" as="sourcePoint" />
            <mxPoint x="440" y="400" as="targetPoint" />
            <Array as="points">
              <mxPoint x="378" y="260" />
            </Array>
          </mxGeometry>
        </mxCell>
        <mxCell id="QBYHGXPFq6S5iVyyYOcL-15" value="" style="endArrow=classic;html=1;" parent="1" target="QBYHGXPFq6S5iVyyYOcL-2" edge="1" source="QBYHGXPFq6S5iVyyYOcL-5">
          <mxGeometry width="50" height="50" relative="1" as="geometry">
            <mxPoint x="470" y="240" as="sourcePoint" />
            <mxPoint x="440" y="400" as="targetPoint" />
          </mxGeometry>
        </mxCell>
        <mxCell id="hLwotwYVnUrnQPzGV-Hz-1" value="SNS2DeepScan&lt;br&gt;DBUpdate" style="outlineConnect=0;fontColor=#232F3E;gradientColor=#F34482;gradientDirection=north;fillColor=#BC1356;strokeColor=#ffffff;dashed=0;verticalLabelPosition=middle;verticalAlign=middle;align=left;html=1;fontSize=12;fontStyle=0;aspect=fixed;shape=mxgraph.aws4.resourceIcon;resIcon=mxgraph.aws4.sqs;labelPosition=right;" vertex="1" parent="1">
          <mxGeometry x="450" y="290.25" width="36" height="36" as="geometry" />
        </mxCell>
        <mxCell id="hLwotwYVnUrnQPzGV-Hz-3" value="" style="endArrow=classic;html=1;rounded=0;" edge="1" parent="1" source="QBYHGXPFq6S5iVyyYOcL-6" target="hLwotwYVnUrnQPzGV-Hz-1">
          <mxGeometry width="50" height="50" relative="1" as="geometry">
            <mxPoint x="388" y="290" as="sourcePoint" />
            <mxPoint x="460" y="272" as="targetPoint" />
            <Array as="points">
              <mxPoint x="410" y="300" />
            </Array>
          </mxGeometry>
        </mxCell>
        <mxCell id="hLwotwYVnUrnQPzGV-Hz-4" value="&lt;span style=&quot;background-color: initial;&quot;&gt;DeepScanDBUpdate&lt;/span&gt;" style="outlineConnect=0;fontColor=#232F3E;gradientColor=#F78E04;gradientDirection=north;fillColor=#D05C17;strokeColor=#ffffff;dashed=0;verticalLabelPosition=bottom;verticalAlign=top;align=center;html=1;fontSize=12;fontStyle=0;aspect=fixed;shape=mxgraph.aws4.resourceIcon;resIcon=mxgraph.aws4.lambda;labelPosition=center;" vertex="1" parent="1">
          <mxGeometry x="530" y="350" width="36" height="36" as="geometry" />
        </mxCell>
        <mxCell id="hLwotwYVnUrnQPzGV-Hz-5" value="" style="endArrow=classic;html=1;rounded=0;" edge="1" parent="1" source="hLwotwYVnUrnQPzGV-Hz-1" target="hLwotwYVnUrnQPzGV-Hz-4">
          <mxGeometry width="50" height="50" relative="1" as="geometry">
            <mxPoint x="406" y="309" as="sourcePoint" />
            <mxPoint x="460" y="316" as="targetPoint" />
            <Array as="points">
              <mxPoint x="470" y="330" />
              <mxPoint x="490" y="350" />
            </Array>
          </mxGeometry>
        </mxCell>
        <mxCell id="hLwotwYVnUrnQPzGV-Hz-7" value="" style="endArrow=classic;html=1;rounded=0;entryX=0.5;entryY=1;entryDx=0;entryDy=0;entryPerimeter=0;" edge="1" parent="1" target="n6hJVPZYRjIwsxcu-Pxa-11">
          <mxGeometry width="50" height="50" relative="1" as="geometry">
            <mxPoint x="570" y="370" as="sourcePoint" />
            <mxPoint x="540" y="372" as="targetPoint" />
            <Array as="points">
              <mxPoint x="570" y="370" />
            </Array>
          </mxGeometry>
        </mxCell>
        <mxCell id="hLwotwYVnUrnQPzGV-Hz-8" value="Last Updated: 240211" style="text;strokeColor=none;fillColor=none;align=left;verticalAlign=middle;spacingLeft=4;spacingRight=4;overflow=hidden;points=[[0,0.5],[1,0.5]];portConstraint=eastwest;rotatable=0;whiteSpace=wrap;html=1;" vertex="1" parent="1">
          <mxGeometry x="630" y="31.74" width="110" height="30" as="geometry" />
        </mxCell>
      </root>
    </mxGraphModel>
  </diagram>
</mxfile>
